<?xml version="1.0" encoding="UTF-8"?>
<svg version="1.1" xmlns="http://www.w3.org/2000/svg" width="1024" height="1024">
<path d="M0 0 C10.24955809 0.00434892 20.4991039 0.00122965 30.74866122 -0.00362831 C40.86389796 -0.0082217 50.97912952 -0.00878155 61.09436697 -0.00618964 C67.03870857 -0.00466693 72.983042 -0.00431874 78.92738301 -0.00772613 C102.42151167 -0.01933198 125.90525563 0.08365346 149.39474064 0.58218247 C150.83089061 0.61210112 150.83089061 0.61210112 152.29605371 0.6426242 C200.15308824 1.66573495 200.15308824 1.66573495 219.12374455 5.40981919 C222.87165505 6.13649519 226.60662914 6.64874068 230.3932758 7.12856919 C235.09675447 7.77881969 239.3218937 8.77085264 243.7682758 10.41372544 C245.88391733 11.14698756 247.94959591 11.62341592 250.1432758 12.06606919 C268.33165409 15.91846876 287.78161936 24.41685541 302.71749455 35.58560044 C304.8281246 37.17712056 304.8281246 37.17712056 307.2057758 38.54263169 C310.32341814 40.42620727 313.21716071 42.52238559 316.1432758 44.69106919 C316.96795353 45.28951645 316.96795353 45.28951645 317.80929142 45.90005356 C319.18841352 46.92625746 320.5148352 48.02250747 321.8307758 49.12856919 C321.8307758 49.78856919 321.8307758 50.44856919 321.8307758 51.12856919 C322.6351508 51.41731919 323.4395258 51.70606919 324.2682758 52.00356919 C326.8307758 53.12856919 326.8307758 53.12856919 327.8307758 55.12856919 C328.8207758 55.45856919 329.8107758 55.78856919 330.8307758 56.12856919 C332.4792133 57.80044419 332.4792133 57.80044419 334.2057758 59.87856919 C336.21229082 62.24684583 338.19553575 64.49332914 340.3932758 66.69106919 C343.37353534 69.67132873 346.33514999 72.72388381 348.8307758 76.12856919 C348.8307758 76.78856919 348.8307758 77.44856919 348.8307758 78.12856919 C349.8207758 78.45856919 350.8107758 78.78856919 351.8307758 79.12856919 C352.80509811 80.50605935 353.76918657 81.89271938 354.66280705 83.32388169 C355.95642416 85.32271482 357.37554418 87.18196579 358.8307758 89.06606919 C361.49191922 92.59208422 363.73882763 96.24129237 365.8307758 100.12856919 C366.47272892 101.27712387 366.47272892 101.27712387 367.1276508 102.44888169 C374.7734882 116.21961034 381.76787176 130.01643881 386.3307758 145.12856919 C386.61537663 146.06044052 386.61537663 146.06044052 386.90572697 147.01113755 C390.95201823 160.88000901 393.4545353 174.83179077 394.78658634 189.20303208 C395.01607204 191.66740374 395.26482618 194.12924778 395.51632267 196.59145981 C397.97261569 221.41497005 397.9803199 246.30683677 397.96150047 271.22417551 C397.95920445 275.73694524 397.96274659 280.24971135 397.96548039 284.76248032 C397.96989321 293.56866442 397.96898164 302.37483993 397.96606775 311.18102434 C397.96379535 318.34980149 397.96350909 325.51857626 397.96459156 332.68735367 C397.96482141 334.22669101 397.96482141 334.22669101 397.96505591 335.79712607 C397.96537568 337.88291951 397.9656999 339.96871295 397.9660285 342.05450639 C397.96887029 361.54802205 397.96561704 381.04153298 397.96022813 400.53504786 C397.95576397 417.19805994 397.95653537 433.86106505 397.96114689 450.524077 C397.96652035 469.94886449 397.96859292 489.37364785 397.96553463 508.79843599 C397.96521613 510.8771312 397.96490176 512.95582642 397.96459156 515.03452164 C397.96443729 516.05684354 397.96428301 517.07916543 397.96412406 518.13246678 C397.96326699 525.27606352 397.96470423 532.41965761 397.96707112 539.56325394 C397.96990037 548.29295965 397.96906597 557.02265639 397.96379037 565.75236109 C397.96119457 570.19146661 397.96007662 574.63055728 397.96343952 579.06966263 C397.98214399 606.07882216 397.98866009 633.1190775 395.0807758 660.00356919 C394.99363316 660.82643418 394.90649052 661.64929917 394.81670719 662.49709946 C391.67073256 691.84918738 384.39476168 720.34075608 370.5182758 746.56606919 C370.13018742 747.30107651 369.74209904 748.03608383 369.34225041 748.79336411 C366.6344161 753.83551919 363.67562346 758.56039204 360.24093205 763.14810044 C358.8697719 765.0738018 357.82626047 766.98851759 356.8307758 769.12856919 C356.1707758 769.12856919 355.5107758 769.12856919 354.8307758 769.12856919 C354.6142133 769.81306137 354.3976508 770.49755356 354.1745258 771.20278794 C352.43532261 774.98959952 350.03829315 777.80328745 347.3307758 780.94106919 C346.58247502 781.83728989 346.58247502 781.83728989 345.81905705 782.75161606 C344.53846715 784.25364845 343.18931438 785.69665275 341.8307758 787.12856919 C341.1707758 787.12856919 340.5107758 787.12856919 339.8307758 787.12856919 C339.73667423 787.72540512 339.64257267 788.32224106 339.54561955 788.93716294 C338.67015849 791.6209534 337.59921005 792.47126597 335.3932758 794.19106919 C332.91800091 796.13925005 331.62655656 797.43489805 329.8307758 800.12856919 C328.8407758 800.12856919 327.8507758 800.12856919 326.8307758 800.12856919 C326.56651798 800.73088364 326.30226017 801.33319809 326.02999455 801.9537645 C324.77510587 804.2295276 323.67464353 805.33916446 321.6432758 806.92544419 C321.02710392 807.40884262 320.41093205 807.89224106 319.7760883 808.39028794 C319.13413517 808.88142075 318.49218205 809.37255356 317.8307758 809.87856919 C317.18882267 810.38517075 316.54686955 810.89177231 315.8854633 811.41372544 C311.09922256 815.12856919 311.09922256 815.12856919 308.8307758 815.12856919 C308.8307758 815.78856919 308.8307758 816.44856919 308.8307758 817.12856919 C307.1807758 817.45856919 305.5307758 817.78856919 303.8307758 818.12856919 C303.8307758 818.78856919 303.8307758 819.44856919 303.8307758 820.12856919 C297.0807758 824.12856919 297.0807758 824.12856919 294.8307758 824.12856919 C294.8307758 824.78856919 294.8307758 825.44856919 294.8307758 826.12856919 C292.92087989 827.08351714 291.01087168 828.03824112 289.10030705 828.99185044 C287.69973816 829.69334019 286.30091216 830.39833749 284.90499455 831.10903794 C271.94536574 837.68276269 258.75653424 843.20034078 244.5495258 846.45278794 C241.80301858 847.08994178 241.80301858 847.08994178 239.10030705 848.08950669 C224.33627944 852.78153935 208.23670008 853.61471294 192.8657642 854.73321396 C191.97740621 854.79847002 191.08904822 854.86372608 190.17377029 854.9309596 C171.66464263 856.26420889 153.22531693 856.5633117 134.67529029 856.52074319 C130.14273576 856.51376481 125.61021092 856.52452378 121.077663 856.53268296 C112.2619319 856.54582969 103.44627861 856.54322923 94.6305448 856.53444503 C87.4460646 856.52759087 80.26160578 856.52678455 73.07712322 856.53001648 C72.04352021 856.53047618 71.00991719 856.53093588 69.94499287 856.53140951 C67.84336494 856.53236896 65.74173702 856.53334161 63.6401091 856.53432728 C44.05973593 856.54282568 24.47940531 856.53313582 4.89903913 856.51692618 C-11.79260052 856.50353415 -28.48417749 856.50585282 -45.175816 856.51968247 C-64.69499582 856.53584794 -84.21413859 856.54199598 -103.73332417 856.53284568 C-105.82692422 856.53189032 -107.92052427 856.53094721 -110.01412433 856.53001648 C-111.0434363 856.52955366 -112.07274826 856.52909083 -113.13325149 856.52861398 C-120.28251792 856.52605625 -127.43175997 856.53038352 -134.58102268 856.53745514 C-256.7909976 856.64754345 -256.7909976 856.64754345 -296.10184139 842.84976059 C-298.34282109 842.06801118 -300.59447068 841.32366803 -302.8489117 840.58169419 C-317.11722659 835.82967962 -331.10816495 829.00134288 -343.43094295 820.33950669 C-345.34503069 818.96771569 -345.34503069 818.96771569 -348.2317242 817.37856919 C-349.1907867 816.75981919 -349.1907867 816.75981919 -350.1692242 816.12856919 C-350.1692242 815.46856919 -350.1692242 814.80856919 -350.1692242 814.12856919 C-350.86531795 813.90298325 -351.5614117 813.67739731 -352.2785992 813.44497544 C-355.81883158 811.83273447 -358.51891502 809.60383972 -361.4192242 807.06606919 C-362.01477108 806.54947739 -362.61031795 806.03288559 -363.2239117 805.5006395 C-368.37225607 800.96405827 -373.29803848 796.20992293 -378.1692242 791.37856919 C-378.87466366 790.68239487 -379.58010311 789.98622055 -380.30691952 789.26895005 C-392.1692242 777.33458991 -392.1692242 777.33458991 -392.1692242 773.12856919 C-393.1592242 772.79856919 -394.1492242 772.46856919 -395.1692242 772.12856919 C-395.1692242 771.13856919 -395.1692242 770.14856919 -395.1692242 769.12856919 C-395.8292242 769.12856919 -396.4892242 769.12856919 -397.1692242 769.12856919 C-398.8957867 767.08169419 -398.8957867 767.08169419 -400.7942242 764.37856919 C-401.42586483 763.49685044 -402.05750545 762.61513169 -402.7082867 761.70669419 C-404.1692242 759.12856919 -404.1692242 759.12856919 -404.1692242 755.12856919 C-404.8292242 755.12856919 -405.4892242 755.12856919 -406.1692242 755.12856919 C-421.56725157 726.11433814 -421.56725157 726.11433814 -425.9817242 710.29653794 C-426.94750379 706.84076049 -428.07109711 703.46181017 -429.2317242 700.06606919 C-434.24995443 683.39259456 -435.59307543 666.09537195 -436.7670483 648.81089646 C-436.83263571 647.85349571 -436.89822313 646.89609496 -436.96579804 645.90968207 C-438.28593292 626.26134896 -438.59861948 606.68317933 -438.54673916 586.99708837 C-438.53763888 582.23170935 -438.54641214 577.46635134 -438.55260128 572.70097214 C-438.56194311 563.43882115 -438.55562222 554.17674974 -438.54333834 544.91460481 C-438.52951461 534.07622746 -438.53137359 523.2378677 -438.53347167 512.39948378 C-438.53663967 493.04052679 -438.52511725 473.68160696 -438.50540584 454.32266098 C-438.48637677 435.62831356 -438.47933004 416.93400958 -438.48489803 398.23965317 C-438.4909807 377.75738463 -438.49073605 357.27513501 -438.4794122 336.79286802 C-438.47820519 334.60209316 -438.47699921 332.4113183 -438.47579426 330.22054344 C-438.47519072 329.14329731 -438.47458718 328.06605118 -438.47396535 326.95616123 C-438.47011825 319.4370769 -438.47046708 311.91799971 -438.4723801 304.39891487 C-438.47452058 295.22102516 -438.46913891 286.04317307 -438.45476655 276.86529388 C-438.44761514 272.20099231 -438.44336446 267.536745 -438.44800991 262.87243897 C-438.46591919 242.37720672 -438.02553596 222.05579378 -436.43098813 201.61693782 C-436.05384874 196.59103064 -435.75054585 191.56068945 -435.44697309 186.52988839 C-435.01415973 181.22964604 -434.06588437 176.07932816 -432.9817242 170.87856919 C-432.76395321 169.8129979 -432.54618221 168.74742661 -432.32181209 167.64956528 C-430.25720299 157.90880802 -427.43915858 148.52390752 -424.1692242 139.12856919 C-423.84309139 138.1450145 -423.51695858 137.16145981 -423.18094295 136.14810044 C-420.120831 127.23737798 -416.05496838 118.70172806 -412.1692242 110.12856919 C-411.5092242 110.12856919 -410.8492242 110.12856919 -410.1692242 110.12856919 C-409.9010992 109.05606919 -409.6329742 107.98356919 -409.3567242 106.87856919 C-408.28731858 103.5014988 -407.35625328 101.79103936 -405.1692242 99.12856919 C-404.6742242 97.64356919 -404.6742242 97.64356919 -404.1692242 96.12856919 C-403.5092242 96.12856919 -402.8492242 96.12856919 -402.1692242 96.12856919 C-401.6742242 94.14856919 -401.6742242 94.14856919 -401.1692242 92.12856919 C-400.5092242 92.12856919 -399.8492242 92.12856919 -399.1692242 92.12856919 C-399.0660992 91.57169419 -398.9629742 91.01481919 -398.8567242 90.44106919 C-397.86770387 87.11436444 -396.32376654 84.27289434 -393.84500545 81.81606919 C-390.77088428 78.72045066 -388.1544782 75.21682923 -385.42313045 71.81997544 C-383.43121766 69.44141752 -381.47724024 67.20137339 -379.1692242 65.12856919 C-378.5092242 65.12856919 -377.8492242 65.12856919 -377.1692242 65.12856919 C-376.5092242 63.80856919 -375.8492242 62.48856919 -375.1692242 61.12856919 C-374.5092242 61.12856919 -373.8492242 61.12856919 -373.1692242 61.12856919 C-372.9010992 60.48919419 -372.6329742 59.84981919 -372.3567242 59.19106919 C-371.1692242 57.12856919 -371.1692242 57.12856919 -368.1692242 56.12856919 C-368.1692242 55.46856919 -368.1692242 54.80856919 -368.1692242 54.12856919 C-366.14278652 52.3721254 -364.11761137 50.74142897 -361.9817242 49.12856919 C-361.40357967 48.67739731 -360.82543514 48.22622544 -360.22977108 47.76138169 C-357.00388101 45.29731198 -354.06773365 43.42073051 -350.1692242 42.12856919 C-350.1692242 41.46856919 -350.1692242 40.80856919 -350.1692242 40.12856919 C-348.44656795 38.76138169 -348.44656795 38.76138169 -346.1067242 37.25356919 C-345.35262264 36.76114731 -344.59852108 36.26872544 -343.82156795 35.76138169 C-338.20063347 32.3010715 -332.55109939 29.28259303 -326.5442242 26.56606919 C-323.11945673 25.01529596 -319.74733827 23.47646083 -316.5207867 21.53481919 C-312.35132071 19.04145082 -307.75577488 17.67696993 -303.1692242 16.12856919 C-301.74996639 15.64903794 -301.74996639 15.64903794 -300.3020367 15.15981919 C-252.16025811 -0.34558483 -201.11083436 1.2101751 -151.10281795 0.58560044 C-150.26530136 0.57497779 -149.42778477 0.56435514 -148.56488889 0.55341059 C-99.04513798 -0.0706301 -49.52284054 -0.0234765 0 0 Z " fill="#FCFCFC" transform="translate(533.1692242026329,72.8714308142662)"/>
<path d="M0 0 C2.89926255 0.6247822 5.82771674 1.01074104 8.76074219 1.44677734 C17.32015323 2.89965035 25.48749768 5.69850976 33.69824219 8.44677734 C34.69481339 8.77863037 34.69481339 8.77863037 35.71151733 9.1171875 C42.02376579 11.22890028 48.15447787 13.35620205 54.07324219 16.44677734 C54.08132904 17.13121414 54.08941589 17.81565094 54.0977478 18.52082825 C54.17663794 25.06373209 54.26418583 31.60646111 54.36076927 38.14912891 C54.41010245 41.51044582 54.45546621 44.87170131 54.49511719 48.2331543 C54.67630737 63.41066287 55.0518494 78.39084532 57.07324219 93.44677734 C53.92324236 92.23976167 50.98892461 90.92752612 48.06933594 89.23974609 C47.33432861 88.82023682 46.59932129 88.40072754 45.84204102 87.96850586 C45.0727124 87.52821045 44.30338379 87.08791504 43.51074219 86.63427734 C36.53430581 82.69579588 29.55097437 79.33962264 22.07324219 76.44677734 C21.01492188 75.96982422 19.95660156 75.49287109 18.86621094 75.00146484 C14.39526305 73.07373619 9.75808616 71.80806287 5.07324219 70.50927734 C3.68057129 70.1201416 3.68057129 70.1201416 2.25976562 69.72314453 C0.39281781 69.20272074 -1.4746866 68.68428902 -3.34277344 68.16796875 C-5.57990904 67.54358302 -7.808861 66.89820985 -10.03613281 66.23974609 C-42.68358043 56.88688288 -78.16416139 60.54147935 -110.08691406 70.95947266 C-111.92675781 71.44677734 -111.92675781 71.44677734 -114.92675781 71.44677734 C-114.92675781 72.10677734 -114.92675781 72.76677734 -114.92675781 73.44677734 C-115.63058594 73.65431641 -116.33441406 73.86185547 -117.05957031 74.07568359 C-124.28236287 76.32927031 -130.92113324 79.24891457 -137.62597656 82.73583984 C-140.34804165 84.14680376 -143.08815747 85.46100156 -145.86425781 86.75927734 C-159.78274107 93.72998395 -172.07366872 103.78344108 -183.48925781 114.23583984 C-185.05012927 115.6516303 -186.63200402 117.04480707 -188.23925781 118.40771484 C-194.25335072 123.52387027 -199.10099493 129.21105243 -203.92675781 135.44677734 C-204.65765625 136.37361328 -205.38855469 137.30044922 -206.14160156 138.25537109 C-212.34184853 146.28627094 -217.7644846 154.71982312 -222.92675781 163.44677734 C-223.28656738 164.05360352 -223.64637695 164.66042969 -224.01708984 165.28564453 C-241.12209484 194.57404518 -248.80009257 229.40331577 -248.48925781 263.07177734 C-248.48499786 264.06880676 -248.48073792 265.06583618 -248.47634888 266.09307861 C-248.37837127 282.65608512 -247.09460518 298.35008801 -242.92675781 314.44677734 C-242.50934326 316.07341309 -242.50934326 316.07341309 -242.08349609 317.73291016 C-239.14768236 328.90051535 -235.95313577 340.01956348 -230.92675781 350.44677734 C-230.64751465 351.03265625 -230.36827148 351.61853516 -230.08056641 352.22216797 C-223.7205575 365.50049433 -216.97572821 378.80756525 -208.14160156 390.62646484 C-206.92675781 392.44677734 -206.92675781 392.44677734 -206.92675781 394.44677734 C-207.64476562 394.59373047 -208.36277344 394.74068359 -209.10253906 394.89208984 C-228.12394984 399.01379031 -245.6918344 405.24348666 -262.12988281 415.82958984 C-263.92675781 416.44677734 -263.92675781 416.44677734 -265.86865234 415.73925781 C-268.29629393 414.21471041 -269.21276963 412.8491351 -270.65332031 410.38427734 C-271.36488281 409.18931641 -271.36488281 409.18931641 -272.09082031 407.97021484 C-272.57292969 407.13748047 -273.05503906 406.30474609 -273.55175781 405.44677734 C-274.52072306 403.79953643 -275.49197553 402.1536382 -276.46582031 400.50927734 C-276.89072754 399.77837891 -277.31563477 399.04748047 -277.75341797 398.29443359 C-278.9215241 396.30677838 -278.9215241 396.30677838 -280.92675781 394.44677734 C-281.67283643 392.75470401 -282.4147036 391.06041457 -283.11914062 389.35058594 C-284.36583785 386.41172712 -285.84430727 383.59833824 -287.30175781 380.75927734 C-290.06267267 375.32509571 -292.52639457 369.8307866 -294.78613281 364.16552734 C-295.90197987 361.39299437 -295.90197987 361.39299437 -297.41113281 358.63818359 C-299.23307443 354.8017756 -300.33713513 350.97787779 -301.42675781 346.88427734 C-301.64178955 346.09504883 -301.85682129 345.30582031 -302.07836914 344.49267578 C-303.6188708 338.77561282 -305.0029308 333.03213455 -306.25097656 327.24365234 C-306.88085914 324.42299248 -306.88085914 324.42299248 -307.91113281 321.68115234 C-309.22996889 317.48116667 -309.858879 313.2960576 -310.48925781 308.94677734 C-310.61494141 308.13724609 -310.740625 307.32771484 -310.87011719 306.49365234 C-312.90596413 292.7650091 -313.16565807 278.98496348 -313.17675781 265.13427734 C-313.17826843 263.81609512 -313.17826843 263.81609512 -313.17980957 262.47128296 C-313.16860314 247.94594221 -312.37613317 233.78808402 -309.92675781 219.44677734 C-309.76095215 218.4604834 -309.59514648 217.47418945 -309.42431641 216.45800781 C-306.52086008 199.52803348 -306.52086008 199.52803348 -303.92675781 193.44677734 C-303.50358351 191.78684201 -303.11007499 190.11918771 -302.73925781 188.44677734 C-301.27880049 182.44847048 -299.43049134 176.61534038 -297.48925781 170.75927734 C-297.20091064 169.88078125 -296.91256348 169.00228516 -296.61547852 168.09716797 C-294.05795846 160.47542893 -291.0925861 153.32945016 -286.92675781 146.44677734 C-286.27900391 144.90183594 -286.27900391 144.90183594 -285.61816406 143.32568359 C-278.4544656 126.41206639 -267.5641961 110.58141593 -255.92675781 96.44677734 C-255.51425781 95.94549316 -255.10175781 95.44420898 -254.67675781 94.92773438 C-249.35511266 88.48544449 -243.9853023 82.21528513 -237.92675781 76.44677734 C-237.14300781 75.66302734 -236.35925781 74.87927734 -235.55175781 74.07177734 C-234.68550781 73.20552734 -233.81925781 72.33927734 -232.92675781 71.44677734 C-232.25773437 70.76615234 -231.58871094 70.08552734 -230.89941406 69.38427734 C-230.1453125 68.62115234 -229.39121094 67.85802734 -228.61425781 67.07177734 C-227.916875 66.36279297 -227.21949219 65.65380859 -226.50097656 64.92333984 C-220.2939867 58.95182001 -213.6587863 53.54391061 -206.86425781 48.25927734 C-206.10048828 47.65664063 -205.33671875 47.05400391 -204.54980469 46.43310547 C-200.16676582 43.01740966 -195.82388984 40.07303757 -190.92675781 37.44677734 C-189.88261719 36.8725 -189.88261719 36.8725 -188.81738281 36.28662109 C-188.27597656 35.98884766 -187.73457031 35.69107422 -187.17675781 35.38427734 C-184.07429045 33.7195699 -184.07429045 33.7195699 -182.47753906 31.97802734 C-178.25928303 27.81289796 -172.2679747 25.50808356 -166.80175781 23.44677734 C-162.85788253 21.9449301 -159.83524032 20.08685237 -156.49707031 17.54052734 C-154.12992958 15.8917726 -151.69191637 15.22102174 -148.92675781 14.44677734 C-147.56756738 14.00625741 -146.21102405 13.55753023 -144.85644531 13.10302734 C-144.05964355 12.83603027 -143.2628418 12.5690332 -142.44189453 12.29394531 C-139.97786436 11.46399145 -137.51472618 10.63143877 -135.05175781 9.79833984 C-126.6261234 6.95334163 -118.19069338 4.14256869 -109.67675781 1.57177734 C-109.02320313 1.36891113 -108.36964844 1.16604492 -107.69628906 0.95703125 C-103.55047835 -0.26911982 -99.55728899 -0.89976846 -95.27636719 -1.30712891 C-92.88752989 -1.55733132 -90.53881075 -1.91756199 -88.16894531 -2.30712891 C-59.33613915 -6.79071879 -28.47636981 -6.52712612 0 0 Z " fill="#97A4B4" transform="translate(545.9267578125,248.55322265625)"/>
<path d="M0 0 C4.27216063 2.31431551 8.09918858 5.1151894 12 8 C16.64186055 11.33169664 16.64186055 11.33169664 22 13 C22 13.66 22 14.32 22 15 C24.97 15.99 27.94 16.98 31 18 C31 18.66 31 19.32 31 20 C31.99 20.061875 32.98 20.12375 34 20.1875 C37.13013576 20.62571901 39.13650466 21.55217049 41.75 23.3125 C46.516935 26.51197088 51.58484695 28.18972452 57 30 C57.69480469 30.26683594 58.38960937 30.53367188 59.10546875 30.80859375 C64.15662941 32.69423013 69.1998017 33.5810812 74.5 34.4375 C88.86556692 36.81020995 88.86556692 36.81020995 94.07875061 42.11546326 C96.5237639 45.78637173 96.50115389 48.02012897 96.50170898 52.41040039 C96.50981346 53.50447456 96.50981346 53.50447456 96.51808167 54.62065125 C96.5305729 57.03006794 96.51405207 59.43828837 96.49609375 61.84765625 C96.49624898 63.54137738 96.49774192 65.23509886 96.50050354 66.92881775 C96.50188856 70.48729075 96.48933211 74.04536135 96.46655273 77.60375977 C96.43848875 82.10556492 96.4410841 86.60669178 96.45326138 91.1085453 C96.54474926 133.49095901 96.54474926 133.49095901 90 154 C89.76023437 154.88816406 89.52046875 155.77632812 89.2734375 156.69140625 C83.93104779 175.0402681 71.99976487 191.32144994 59 205 C58.55140625 205.4758252 58.1028125 205.95165039 57.640625 206.44189453 C43.38016537 221.48099877 17.1927915 245.26541524 -4.4375 246.4375 C-11.26491136 246.32912839 -16.22073478 243.39956777 -22 240 C-22.90927246 239.46922852 -22.90927246 239.46922852 -23.83691406 238.92773438 C-39.51239732 229.69936142 -55.4796188 218.98897798 -67.29296875 205.015625 C-68.39601471 203.71317257 -69.52246901 202.43003381 -70.67578125 201.171875 C-100.48553146 168.55247017 -106.76344858 128.34305728 -106.52148438 85.75732422 C-106.49834909 81.64192955 -106.51209762 77.52755907 -106.53577423 73.41219902 C-106.55022772 70.20533495 -106.54563435 66.99871481 -106.53526306 63.79184341 C-106.53261234 62.27286783 -106.53580671 60.75386948 -106.54518127 59.2349205 C-106.55537908 57.12590039 -106.53982041 55.01856291 -106.51757812 52.90966797 C-106.51439575 51.71630829 -106.51121338 50.52294861 -106.50793457 49.29342651 C-105.89067201 45.29112187 -104.55104204 43.11543728 -102 40 C-98.8125 38.75 -98.8125 38.75 -95 38 C-93.49976116 37.64684643 -91.99976953 37.29264134 -90.5 36.9375 C-87.80079254 36.34020916 -85.25993137 35.92070693 -82.5 35.625 C-79.50991396 35.09105606 -77.60225752 34.4675746 -74.90625 33.21484375 C-69.9913321 30.97933593 -65.01399027 28.93923919 -60 26.9375 C-59.16210938 26.59912109 -58.32421875 26.26074219 -57.4609375 25.91210938 C-52.66118607 23.99146581 -47.87299524 22.2648533 -42.91015625 20.81079102 C-40.90187396 20.10874394 -40.90187396 20.10874394 -39.49609375 18.40991211 C-38 17 -38 17 -34 17 C-34 16.34 -34 15.68 -34 15 C-33.071875 14.731875 -32.14375 14.46375 -31.1875 14.1875 C-28.01851573 13.00689802 -27.23313656 12.32246203 -25 10 C-23.82753433 9.28716289 -22.63802748 8.60198949 -21.4375 7.9375 C-18.05436646 6.23356577 -18.05436646 6.23356577 -16 4 C-15.01 4 -14.02 4 -13 4 C-13 3.34 -13 2.68 -13 2 C-8.5575523 -0.43937976 -4.99022823 -1.10893961 0 0 Z " fill="#4A9CFA" transform="translate(724,208)"/>
<path d="M0 0 C3.32475392 1.05822968 6.65307897 1.88929515 10.05664062 2.64916992 C22.40128034 5.42609847 33.87867297 10.58865642 45.140625 16.27734375 C46.31625 16.77234375 47.491875 17.26734375 48.703125 17.77734375 C52.140625 19.27734375 52.140625 19.27734375 54.703125 20.83984375 C57.0591666 22.3608878 57.0591666 22.3608878 59.61328125 23.015625 C64.67356876 24.82567247 69.27884212 27.37898181 74.015625 29.90234375 C76.07887012 30.99063991 78.14267498 32.07787552 80.20703125 33.1640625 C81.21652832 33.69563965 82.22602539 34.2272168 83.26611328 34.77490234 C89.50965415 38.03825809 95.82818147 41.15021159 102.140625 44.27734375 C103.99503576 45.21436083 105.84923466 46.15179744 107.703125 47.08984375 C111.45973909 48.9681508 115.26868467 50.64705308 119.140625 52.27734375 C120.78674213 53.04757085 122.43254178 53.81847662 124.078125 54.58984375 C133.99582133 59.1053286 144.21625469 63.03450632 154.80859375 65.63671875 C157.140625 66.27734375 157.140625 66.27734375 159.53125 67.26171875 C162.55755832 68.43962319 165.52481137 69.11203123 168.703125 69.77734375 C169.81816406 70.01453125 170.93320312 70.25171875 172.08203125 70.49609375 C173.43472693 70.75738635 174.78761112 71.01770389 176.140625 71.27734375 C176.9665918 71.45160889 177.79255859 71.62587402 178.64355469 71.80541992 C187.06616244 73.43135827 195.31955142 73.61652343 203.86523438 73.59301758 C206.24136103 73.58987583 208.61621527 73.61333801 210.9921875 73.63867188 C224.84905191 73.6967081 238.8862172 72.37235075 252.015625 67.65234375 C252.73991699 67.40000977 253.46420898 67.14767578 254.21044922 66.88769531 C278.51348734 58.16990684 300.94390335 45.46492367 318.80078125 26.515625 C320.140625 25.27734375 320.140625 25.27734375 322.140625 25.27734375 C317.8567638 36.66664781 310.38729263 46.60638931 303.140625 56.27734375 C302.47804688 57.16808594 301.81546875 58.05882812 301.1328125 58.9765625 C290.10375971 73.09807519 276.74578286 85.90701476 262.140625 96.27734375 C261.563125 96.68855469 260.985625 97.09976563 260.390625 97.5234375 C252.9330845 102.77315351 245.19028831 107.53545989 237.328125 112.15234375 C236.56411377 112.60480469 235.80010254 113.05726563 235.01293945 113.5234375 C230.31608279 116.23481625 225.59954581 118.37970663 220.53564453 120.31469727 C218.32480238 121.20331608 216.25901362 122.20340496 214.15234375 123.3125 C209.58819765 125.65223864 204.84108725 127.19257143 199.953125 128.71484375 C198.99188721 129.01487305 198.03064941 129.31490234 197.0402832 129.62402344 C155.92731071 142.22451578 113.93656251 143.92702586 72.140625 133.27734375 C71.4894873 133.11621094 70.83834961 132.95507812 70.16748047 132.7890625 C56.3887346 129.37129443 43.17768224 124.89493752 30.140625 119.27734375 C28.20354032 118.4846614 26.26603333 117.69301035 24.328125 116.90234375 C1.05587636 107.15073314 -21.08005858 94.9646897 -42.859375 82.27734375 C-62.11138553 71.07012148 -81.73383892 61.40431871 -102.984375 54.65234375 C-103.95177612 54.3428479 -103.95177612 54.3428479 -104.9387207 54.02709961 C-113.66382992 51.30650915 -121.75340082 49.88847197 -130.921875 49.90234375 C-131.92613525 49.90250488 -132.93039551 49.90266602 -133.96508789 49.90283203 C-142.80411274 50.03689563 -150.43803117 51.68178896 -158.859375 54.27734375 C-161.51973271 54.97277779 -164.187647 55.62627502 -166.859375 56.27734375 C-162.65260853 44.33350929 -150.02886253 31.64229635 -139.859375 24.27734375 C-139.199375 24.27734375 -138.539375 24.27734375 -137.859375 24.27734375 C-137.859375 23.61734375 -137.859375 22.95734375 -137.859375 22.27734375 C-135.88454798 20.83234837 -133.94634092 19.5413449 -131.859375 18.27734375 C-131.23675781 17.89835938 -130.61414063 17.519375 -129.97265625 17.12890625 C-125.14926862 14.27734375 -125.14926862 14.27734375 -122.859375 14.27734375 C-122.859375 13.61734375 -122.859375 12.95734375 -122.859375 12.27734375 C-119.18144099 10.61771783 -115.50093906 8.9639332 -111.81811523 7.31518555 C-110.56937495 6.75520584 -109.32130876 6.19372011 -108.07397461 5.63061523 C-75.53682567 -9.05221371 -34.13223887 -10.9365712 0 0 Z " fill="#4F9AF7" transform="translate(411.859375,668.72265625)"/>
<path d="M0 0 C6.58158228 17.2766535 5.57001673 37.8832686 5.5 56.0625 C5.49856995 57.26656494 5.49713989 58.47062988 5.4956665 59.71118164 C5.44109672 78.30683847 4.44152005 95.87802878 0 114 C-0.25652344 115.08619629 -0.51304687 116.17239258 -0.77734375 117.29150391 C-3.095274 127.00576506 -5.72517828 136.5641233 -9 146 C-9.29261719 146.8468335 -9.58523438 147.69366699 -9.88671875 148.56616211 C-21.20139031 180.84369725 -37.47326092 211.8302798 -61.07421875 236.8984375 C-62.98690506 238.90702306 -62.98690506 238.90702306 -64.39453125 240.9140625 C-72.28102773 251.7311906 -88.79279203 255.27109103 -101 259 C-102.04542969 259.33128906 -103.09085938 259.66257812 -104.16796875 260.00390625 C-116.0006785 263.53835202 -128.43909724 263.23855856 -140.6875 263.25 C-141.43978882 263.25100708 -142.19207764 263.25201416 -142.96716309 263.25305176 C-153.93744205 263.24312602 -164.33579907 262.79639047 -175 260 C-176.35933351 259.67170316 -177.71870955 259.34358237 -179.078125 259.015625 C-185.96901606 257.25674944 -185.96901606 257.25674944 -189 256 C-189.33 255.01 -189.66 254.02 -190 253 C-188.99839844 252.57847656 -187.99679687 252.15695312 -186.96484375 251.72265625 C-169.93985071 244.41280353 -153.93962451 235.27033821 -140 223 C-138.74123047 221.90558594 -138.74123047 221.90558594 -137.45703125 220.7890625 C-134.93612109 218.56128143 -132.45940218 216.29544204 -130 214 C-129.18789063 213.24203125 -128.37578125 212.4840625 -127.5390625 211.703125 C-93.52954349 178.87374703 -72.6030921 131.48724599 -67 85 C-66.90428711 84.27433838 -66.80857422 83.54867676 -66.70996094 82.80102539 C-65.80314804 75.1556826 -65.77888884 67.48691306 -65.75976562 59.79858398 C-65.75011897 57.46626284 -65.71903169 55.13484779 -65.6875 52.80273438 C-65.61412412 42.21326735 -66.88251948 32.36009086 -69 22 C-70.23779048 15.01381847 -71.29394618 8.06053822 -72 1 C-68.37561601 2.325489 -65.09138184 4.02083888 -61.7355957 5.91992188 C-50.29935392 12.34291713 -38.51534197 15.30848491 -25.375 12.125 C-19.23238113 10.080817 -13.64932636 6.63532833 -8.06787109 3.40478516 C-6.93599365 2.75002197 -6.93599365 2.75002197 -5.78125 2.08203125 C-5.10126953 1.68218018 -4.42128906 1.2823291 -3.72070312 0.87036133 C-2 0 -2 0 0 0 Z " fill="#4E5A6B" transform="translate(757,457)"/>
<path d="M0 0 C8.53197277 0.07459648 16.33326369 2.03598819 24.5 4.3125 C25.23847168 4.51568848 25.97694336 4.71887695 26.73779297 4.92822266 C28.91478181 5.53678674 31.08329706 6.16834507 33.25 6.8125 C33.90524658 7.00158936 34.56049316 7.19067871 35.2355957 7.38549805 C39.42242466 8.6887338 42.36099771 10.25136223 45.5 13.3125 C46.12444448 15.92822367 46.12444448 15.92822367 46.12361908 18.96566105 C46.13542442 20.12477908 46.14722976 21.28389711 46.15939283 22.47813994 C46.14687499 23.7523461 46.13435714 25.02655226 46.12145996 26.33937073 C46.12578783 27.70600218 46.13230281 29.07262816 46.14082003 30.43923992 C46.15784921 34.19856442 46.14360481 37.95722518 46.12430525 41.71651495 C46.10890671 45.76905449 46.12227266 49.82151119 46.13204956 53.87405396 C46.14659307 61.81421309 46.13432539 69.75411698 46.11293632 77.69425196 C46.0889549 86.93501054 46.0906389 96.17571027 46.09324223 105.41649305 C46.09693434 121.90035512 46.0760896 138.38409671 46.04199219 154.86791992 C46.0088942 170.87446131 45.99473457 186.88087625 46.00097656 202.88745117 C46.00773573 220.3059903 46.00529422 237.72447641 45.98561716 255.1430077 C45.98457768 256.06348672 45.98353819 256.98396574 45.9824672 257.93233807 C45.98037626 259.78122862 45.97826529 261.63011914 45.97613403 263.47900965 C45.96922961 269.92525103 45.96857058 276.37147611 45.97001648 282.81772041 C45.97145399 290.669276 45.96180543 298.52072827 45.93807012 306.37224955 C45.92618437 310.38069392 45.919102 314.38899402 45.92490768 318.39745522 C45.93006034 322.06325961 45.92145986 325.72875859 45.90163308 329.39451062 C45.89460993 331.35653125 45.90236483 333.31858736 45.91055441 335.28060347 C45.90149777 336.43711375 45.89244113 337.59362404 45.88311005 338.78518009 C45.88153884 339.78737207 45.87996764 340.78956406 45.87834883 341.82212549 C45.43430126 344.74494345 44.8387603 345.56649944 42.5 347.3125 C33.05502176 351.87930267 19.79068403 356.76290582 9.5 353.3125 C-3.19333333 347.61916667 -3.19333333 347.61916667 -6.5 344.3125 C-6.59842257 342.48900152 -6.62555635 340.66164005 -6.62584114 338.83548737 C-6.62844889 337.63930833 -6.63105664 336.4431293 -6.63374341 335.21070242 C-6.63158089 333.86625752 -6.62932421 332.52181277 -6.62698364 331.17736816 C-6.6281345 329.76241087 -6.62972178 328.34745387 -6.63171089 326.9324975 C-6.63590912 323.02593961 -6.63381131 319.11940596 -6.63072467 315.21284795 C-6.62847278 311.00694309 -6.63194912 306.80104256 -6.63470459 302.59513855 C-6.63916356 294.34852036 -6.63818526 286.10191124 -6.63529195 277.85529268 C-6.63303841 271.15623867 -6.63272518 264.45718721 -6.63381577 257.75813293 C-6.633969 256.80660824 -6.63412223 255.85508355 -6.63428011 254.87472478 C-6.63459982 252.94204104 -6.63492403 251.0093573 -6.6352527 249.07667357 C-6.63810786 230.93133498 -6.6348199 212.78600144 -6.62945233 194.64066368 C-6.62498426 179.05324592 -6.62576018 163.4658356 -6.63037109 147.87841797 C-6.63571622 129.80035132 -6.63783317 111.72228911 -6.63475883 93.64422178 C-6.63444026 91.71843688 -6.63412589 89.79265197 -6.63381577 87.86686707 C-6.63366149 86.91921294 -6.63350721 85.97155882 -6.63334826 84.99518791 C-6.63248292 78.30007964 -6.63394635 71.60497417 -6.63629532 64.90986633 C-6.63909283 56.75665724 -6.63835609 48.60345778 -6.63301457 40.45024979 C-6.6303769 36.28616564 -6.62937361 32.12209758 -6.63266373 27.95801353 C-6.63562534 24.1522867 -6.63403616 20.346591 -6.62868617 16.54086703 C-6.62756141 15.15798145 -6.62815448 13.77509329 -6.63056196 12.39220935 C-6.63356591 10.52464553 -6.62991255 8.65707443 -6.62584114 6.78951263 C-6.62567879 5.74848184 -6.62551644 4.70745105 -6.62534916 3.63487387 C-6.38818739 -0.75907889 -3.86711953 0.09093474 0 0 Z " fill="#57606E" transform="translate(513.5,339.6875)"/>
<path d="M0 0 C1 1 1 1 1.1241985 3.20810801 C1.12381878 4.19500115 1.12343906 5.18189428 1.12304783 6.19869328 C1.12503888 7.33278789 1.12702993 8.4668825 1.12908131 9.63534361 C1.12616847 10.89698897 1.12325563 12.15863432 1.12025452 13.45851135 C1.1206901 14.79993473 1.12156477 16.14135803 1.12284368 17.48278087 C1.12509116 21.18604378 1.12106393 24.88927803 1.11606562 28.59253728 C1.1117649 32.57960537 1.11320727 36.56667171 1.1139679 40.55374146 C1.11449337 47.46729989 1.11134411 54.38084892 1.10573006 61.29440498 C1.09761825 71.29036373 1.09500017 81.28631792 1.09374207 91.2822796 C1.09155104 107.49832896 1.08488959 123.71437329 1.07543945 139.93041992 C1.06626664 155.68693008 1.05918517 171.44343888 1.05493164 187.19995117 C1.05466892 188.17046201 1.05440619 189.14097285 1.05413551 190.14089311 C1.05283051 195.00944562 1.0515668 199.87799815 1.05032361 204.74655068 C1.03994942 245.16437061 1.02232974 285.58218502 1 326 C-2.73074284 325.41543709 -5.90909325 324.79684015 -9.328125 323.1796875 C-10.11944824 322.81238525 -10.91077148 322.44508301 -11.72607422 322.06665039 C-12.55896973 321.67340576 -13.39186523 321.28016113 -14.25 320.875 C-21.05402299 317.73502087 -27.88224661 314.75820205 -34.875 312.0625 C-35.60493164 311.78067871 -36.33486328 311.49885742 -37.08691406 311.20849609 C-41.03583975 309.70208137 -44.98319482 308.33893506 -49 307 C-49 209.65 -49 112.3 -49 12 C-40.67513176 8.5313049 -33.06299812 5.59684046 -24.5 3.1875 C-23.46230469 2.87619141 -22.42460937 2.56488281 -21.35546875 2.24414062 C-14.1925539 0.21479675 -7.45040475 -0.68433465 0 0 Z " fill="#57606E" transform="translate(474,341)"/>
<path d="M0 0 C0.99 0.33 1.98 0.66 3 1 C3 89.11 3 177.22 3 268 C-22 266 -22 266 -28.625 259.5 C-31 255.6484375 -31 255.6484375 -32.03125 253.74511719 C-33.34938115 251.37062085 -34.97755272 249.27991988 -36.625 247.125 C-40.81417614 241.03256836 -44.33444353 234.52978775 -47.87036133 228.04394531 C-48.65025325 226.63282468 -49.44818794 225.23157862 -50.26049805 223.83886719 C-53.3362931 218.51486092 -55.60274943 213.19708278 -57.5625 207.375 C-57.8605957 206.50037109 -58.15869141 205.62574219 -58.46582031 204.72460938 C-63.20392443 190.62887853 -66.10857839 176.73513402 -68 162 C-68.09716309 161.29488281 -68.19432617 160.58976563 -68.29443359 159.86328125 C-72.46091506 127.12984699 -67.01014614 91.08265079 -51 62 C-50.52691406 61.11054688 -50.05382812 60.22109375 -49.56640625 59.3046875 C-48.0729391 56.51946824 -46.54656412 53.75605658 -45 51 C-44.53851563 50.17628906 -44.07703125 49.35257812 -43.6015625 48.50390625 C-33.90734613 31.76665422 -17.5379655 9.64401925 0 0 Z " fill="#4C5561" transform="translate(390,373)"/>
<path d="M0 0 C9.12928312 4.14777932 16.73183502 12.25012871 24 19 C24.64324219 19.5775 25.28648437 20.155 25.94921875 20.75 C33.24012912 27.59764747 39.17528893 35.89890056 45 44 C45.68046796 44.86757588 46.36093592 45.73515177 47.06202412 46.62901783 C49.32797267 50.57048699 49.5695192 53.63319901 49.52812195 58.05046082 C49.53647861 58.84411885 49.54483527 59.63777689 49.55344516 60.45548517 C49.57636423 63.10623976 49.57081568 65.75614623 49.56518555 68.40698242 C49.57552079 70.31118701 49.58751032 72.21538322 49.60102844 74.11956787 C49.63207334 79.28720733 49.63735262 84.4545679 49.63609672 89.62228942 C49.63692761 93.94108044 49.64917397 98.25981109 49.66104633 102.57858354 C49.68842309 112.77288654 49.69374885 122.96704496 49.6862793 133.16137695 C49.6790442 143.6634283 49.71242208 154.16480739 49.76533669 164.66671294 C49.80917157 173.69372004 49.82582837 182.72051044 49.8213008 191.74762231 C49.81898243 197.13434872 49.8272227 202.52053237 49.86237144 207.90715599 C49.89442048 212.9775665 49.89244466 218.04686819 49.86492729 223.11729431 C49.86048657 224.97196853 49.86785116 226.82671683 49.88827133 228.68128395 C50.00122241 239.69070738 49.43300827 247.22266118 42 256 C41.22914063 257.03253906 40.45828125 258.06507813 39.6640625 259.12890625 C15.37914037 288.11263515 15.37914037 288.11263515 2 296 C1.01 296 0.02 296 -1 296 C-1.022865 258.4357667 -1.04049753 220.87153444 -1.05106533 183.30729559 C-1.05231611 178.87730838 -1.05361042 174.44732118 -1.05493164 170.01733398 C-1.05519395 169.13536494 -1.05545626 168.25339589 -1.05572652 167.34470051 C-1.0600835 153.04465069 -1.06797121 138.74460488 -1.0771528 124.44455744 C-1.08648855 109.78264196 -1.09205544 95.12072859 -1.09408849 80.45881027 C-1.09546389 71.40412239 -1.09981534 62.34944581 -1.10791647 53.29476141 C-1.11318296 47.09431066 -1.11480452 40.89386579 -1.11350138 34.69341297 C-1.11285784 31.11058488 -1.11387721 27.52777662 -1.11920547 23.94495201 C-1.1249267 20.06982563 -1.1230011 16.1947255 -1.12025452 12.31959534 C-1.12316736 11.17467843 -1.1260802 10.02976153 -1.12908131 8.85015017 C-1.12709026 7.82055742 -1.12509921 6.79096468 -1.12304783 5.73017216 C-1.12342755 4.8344119 -1.12380727 3.93865164 -1.1241985 3.01574713 C-1 1 -1 1 0 0 Z " fill="#4E5763" transform="translate(591,370)"/>
<path d="M0 0 C3.6981798 0.16482138 5.47449536 0.47642029 8.1328125 3.125 C8.79023437 4.07375 9.44765625 5.0225 10.125 6 C10.4977002 6.52835449 10.87040039 7.05670898 11.25439453 7.60107422 C12.07446032 8.76653635 12.88712405 9.93723257 13.69335938 11.11230469 C15.05407728 13.0781251 16.45172653 15.01285801 17.859375 16.9453125 C49.48213334 60.5860618 49.48213334 60.5860618 47 84 C44.89276572 92.92635294 41.67708639 100.71227955 36 108 C35.401875 108.886875 34.80375 109.77375 34.1875 110.6875 C26.77233465 118.52638908 16.02840709 123.27980466 5.34375 124.23828125 C-7.53038652 124.57428207 -18.6583163 120.81340757 -28.1171875 112.03515625 C-37.63659261 102.10264488 -42.45691064 90.21317422 -42.171875 76.57421875 C-41.60538776 64.79385908 -37.56564227 56.19349375 -32 46 C-31.47535156 45.01386719 -30.95070313 44.02773438 -30.41015625 43.01171875 C-22.26327866 28.35563108 -11.90268674 11.90268674 0 0 Z " fill="#FBFCFD" transform="translate(717,267)"/>
<path d="M0 0 C0.66 0.33 1.32 0.66 2 1 C-3.94 6.94 -9.88 12.88 -16 19 C-16.66 18.67 -17.32 18.34 -18 18 C-16.625 16 -16.625 16 -15 14 C-14.34 14 -13.68 14 -13 14 C-12.731875 13.360625 -12.46375 12.72125 -12.1875 12.0625 C-11 10 -11 10 -8 9 C-7.67 8.01 -7.34 7.02 -7 6 C-5.37109375 4.39453125 -5.37109375 4.39453125 -3.4375 2.8125 C-2.79683594 2.28269531 -2.15617188 1.75289062 -1.49609375 1.20703125 C-1.00238281 0.80871094 -0.50867188 0.41039062 0 0 Z " fill="#D2D2D3" transform="translate(183,143)"/>
<path d="M0 0 C-3.44476961 3.12841322 -7.0476528 3.92869323 -11.5 4.75 C-12.49580078 4.95689453 -12.49580078 4.95689453 -13.51171875 5.16796875 C-16.9425853 5.83222834 -19.68338388 6.2521918 -23 5 C-20.93847611 4.35105763 -18.87573742 3.7059736 -16.8125 3.0625 C-15.66394531 2.70285156 -14.51539063 2.34320313 -13.33203125 1.97265625 C-8.76607917 0.63980506 -4.75936401 -0.13598183 0 0 Z " fill="#B2DCFC" transform="translate(648,241)"/>
<path d="M0 0 C8.60764545 -0.46112386 16.61479306 1.27151563 25 3 C25 3.99 25 4.98 25 6 C23.82050781 5.55527344 23.82050781 5.55527344 22.6171875 5.1015625 C18.15818083 3.74363606 13.72840589 3.05441834 9.125 2.375 C7.80628906 2.17390625 7.80628906 2.17390625 6.4609375 1.96875 C4.30800222 1.64112941 2.15409378 1.31991492 0 1 C0 0.67 0 0.34 0 0 Z " fill="#D4DCE3" transform="translate(526,245)"/>
<path d="M0 0 C1 2 1 2 1 4 C1.99 4.33 2.98 4.66 4 5 C1.36 5.66 -1.28 6.32 -4 7 C-2.92598892 4.08482708 -2.22189824 2.22189824 0 0 Z " fill="#88BFF2" transform="translate(249,718)"/>
<path d="M0 0 C-3.20336822 2.83374881 -5.78087253 3.5205537 -10 4 C-6.87839899 0.56623888 -4.64008112 -1.54669371 0 0 Z " fill="#707B8B" transform="translate(749,463)"/>
<path d="M0 0 C2.83374881 3.20336822 3.5205537 5.78087253 4 10 C1.41050731 8.70525365 1.03964236 7.67336607 0 5 C-0.125 2.25 -0.125 2.25 0 0 Z " fill="#747F90" transform="translate(248,601)"/>
</svg>
