<svg xmlns="http://www.w3.org/2000/svg" width="400" height="300" viewBox="0 0 400 300">
  <rect width="400" height="300" fill="#3d3d3d"/>
  <rect x="0" y="0" width="400" height="300" fill="url(#g)" opacity="0.3"/>
  <defs>
    <radialGradient id="g" cx="50%" cy="40%" r="60%">
      <stop offset="0%" stop-color="#666"/>
      <stop offset="100%" stop-color="#1a1a1a"/>
    </radialGradient>
  </defs>
  <rect x="60" y="200" width="280" height="40" fill="#2a2a2a"/>
  <rect x="100" y="70" width="200" height="140" rx="8" fill="#1f1f1f" stroke="#555" stroke-width="4"/>
  <rect x="120" y="90" width="160" height="100" fill="#0d0d0d"/>
  <line x1="140" y1="90" x2="140" y2="190" stroke="#444" stroke-width="6"/>
  <line x1="180" y1="90" x2="180" y2="190" stroke="#444" stroke-width="6"/>
  <line x1="220" y1="90" x2="220" y2="190" stroke="#444" stroke-width="6"/>
  <line x1="260" y1="90" x2="260" y2="190" stroke="#444" stroke-width="6"/>
  <ellipse cx="200" cy="140" rx="70" ry="50" fill="#8B4513" opacity="0.7"/>
  <ellipse cx="180" cy="130" rx="25" ry="18" fill="#5c3a1e" opacity="0.8"/>
  <ellipse cx="230" cy="155" rx="30" ry="20" fill="#4a3018" opacity="0.75"/>
  <rect x="150" y="110" width="40" height="25" rx="4" fill="#2d5a27" opacity="0.6" transform="rotate(-15 170 122)"/>
</svg>
